<svg xmlns="http://www.w3.org/2000/svg" viewBox="191 4010.654 51.512 69.716">
  <defs>
    <style>
      .cls-1 {
        fill: #bba659;
      }
    </style>
  </defs>
  <g id="Group_107" data-name="Group 107" transform="translate(191 4010.634)">
    <g id="Group_98" data-name="Group 98" transform="translate(0 0.02)">
      <path id="Path_251" data-name="Path 251" class="cls-1" d="M3.209,65.585c1.3-.925,10.3-2.652,15.05,4.071.679,1.172,1.85,2.159,1.85.925l.679-38.613s-.555-1.049-1.234.37S12.214,54.976,2.037,64.783C1.111,65.585,1.79,66.572,3.209,65.585Z" transform="translate(-0.618 -12.119)"/>
      <path id="Path_252" data-name="Path 252" class="cls-1" d="M44.227,64.585c0,1.542,1.419.308,2.282-1.11,5.8-8.265,12.583-3.7,14.187-2.591,1.727,1.234,2.1.8,2.282-.74,1.6-17.086-14.249-32.938-18.628-42.869-.925-2.1-1.85-.493-1.419.987C51.074,43.428,44.227,64.585,44.227,64.585Z" transform="translate(-16.409 -6.246)"/>
      <path id="Path_253" data-name="Path 253" class="cls-1" d="M50.518,91.154a75.461,75.461,0,0,1-26.77,5.058c-12.46,0-20.108-2.776-22.7-3.886-.74-.308-1.049.432-1.049.74,0,1.3,1.234,1.85,1.789,2.159a5.533,5.533,0,0,1,3.022,2.529c.864,1.665.555,3.269,6.107,5.243s12.768,1.6,12.768,1.6,7.772.37,13.755-1.6,5.613-3.578,6.538-5.243a5.548,5.548,0,0,1,3.207-2.529c.617-.308,4.318-2.036,4.318-3.331A.7.7,0,0,0,50.518,91.154Z" transform="translate(0 -34.912)"/>
      <path id="Path_254" data-name="Path 254" class="cls-1" d="M37.064,13.3a.843.843,0,0,0-.864.864V63.2a.864.864,0,0,0,1.727,0V14.164A.882.882,0,0,0,37.064,13.3Z" transform="translate(-13.871 -5.109)"/>
      <path id="Path_255" data-name="Path 255" class="cls-1" d="M27.99,5.436a5.456,5.456,0,0,1,3.763-.247.467.467,0,0,0,.617-.493V1.611A1.418,1.418,0,0,0,31.506.254c-.925-.432-2.591-.493-5,1.85-.925.987-2.837,1.172-3.948,1.11a.724.724,0,0,0-.679.925C22.377,5.436,23.734,7.163,27.99,5.436Z" transform="translate(-8.375 -0.02)"/>
    </g>
  </g>
</svg>
